<?xml version="1.0" encoding="UTF-8"?>
<svg version="1.1" xmlns="http://www.w3.org/2000/svg" width="300" height="300">
<path d="M0 0 C3.31863323 3.17088586 6.02409558 6.26483992 8.5 10.125 C9.18578125 11.17429687 9.8715625 12.22359375 10.578125 13.3046875 C11.14950195 14.18012207 11.14950195 14.18012207 11.73242188 15.07324219 C20.04770564 27.71272976 28.79404332 39.99656434 38 52 C38.43940918 52.57443848 38.87881836 53.14887695 39.33154297 53.74072266 C43.00677074 58.54315016 46.69707811 63.33352087 50.421875 68.09765625 C80.00676253 106.11517892 106.6925486 149.94297744 101.79345703 200.11523438 C101.20598065 204.50853603 100.17781171 208.73211194 99 213 C98.81195801 213.68594238 98.62391602 214.37188477 98.43017578 215.07861328 C93.25575162 233.41756289 84.56380492 249.68656891 72 264 C70.92685547 265.22396484 70.92685547 265.22396484 69.83203125 266.47265625 C51.84454876 285.60755789 25.04096217 299.02017689 -1.3125 300.27124023 C-5.03618037 300.37803622 -8.75620607 300.37765725 -12.48095703 300.33618164 C-14.76239966 300.31237059 -17.04268115 300.31568005 -19.32421875 300.32226562 C-30.41488837 300.30267213 -40.63239179 299.31672312 -51 295.1875 C-51.68223633 294.92251709 -52.36447266 294.65753418 -53.06738281 294.38452148 C-69.47655131 287.94027078 -82.99859067 279.87010674 -96 268 C-96.72445312 267.34773438 -97.44890625 266.69546875 -98.1953125 266.0234375 C-113.90022333 251.16363398 -122.43890983 229.38353434 -128 209 C-128.18103271 208.42588379 -128.36206543 207.85176758 -128.54858398 207.26025391 C-129.22059065 203.89549583 -129.20394031 200.5318548 -129.23828125 197.11328125 C-129.246353 196.33800583 -129.25442474 195.56273041 -129.26274109 194.76396179 C-129.27656246 193.11732193 -129.28729332 191.47065366 -129.29516602 189.82397461 C-129.30656197 188.17284491 -129.32681117 186.52174829 -129.35668945 184.87084961 C-129.57157803 172.97274506 -128.26764258 162.44247369 -125 151 C-124.7537085 150.10611572 -124.50741699 149.21223145 -124.25366211 148.29125977 C-114.35302665 113.95421029 -92.16658461 85.19539587 -70.26611328 57.59570312 C-60.19792755 44.90660518 -50.95387564 31.69574266 -41.80078125 18.3359375 C-41.30505615 17.61253174 -40.80933105 16.88912598 -40.29858398 16.14379883 C-39.38043546 14.8014534 -38.4644197 13.45764548 -37.55102539 12.11206055 C-32.56772596 4.80745142 -32.56772596 4.80745142 -30 2 C-29.01 2 -28.02 2 -27 2 C-26.8754404 7.37100984 -26.78521298 12.74116011 -26.7253418 18.11328125 C-26.70035721 19.93667262 -26.66635721 21.75996548 -26.62280273 23.58300781 C-26.17264435 42.92393043 -26.17264435 42.92393043 -32 51 C-32.61838745 51.93803467 -32.61838745 51.93803467 -33.24926758 52.89501953 C-34.46646641 54.68620377 -35.74582333 56.40590414 -37.0625 58.125 C-37.53292725 58.7526123 -38.00335449 59.38022461 -38.48803711 60.02685547 C-39.48085885 61.34985388 -40.47707846 62.67030877 -41.4765625 63.98828125 C-43.0044966 66.00593782 -44.51957132 68.0326428 -46.03125 70.0625 C-50.65802169 76.26854507 -55.32570983 82.44004737 -60.0625 88.5625 C-63.76421594 93.3699233 -67.43777533 98.19669792 -71.0625 103.0625 C-71.54017822 103.69422119 -72.01785645 104.32594238 -72.51000977 104.97680664 C-74.71964564 107.96398914 -76.26120354 110.36326578 -77 114 C-69.38269669 121.05615401 -61.73627254 128.07407352 -54 135 C-48.59661979 139.84471085 -43.21645676 144.71219933 -37.875 149.625 C-33.97040804 153.21466583 -30.03076421 156.75576141 -26.0234375 160.23046875 C-21.97315928 163.77250742 -17.99194962 167.39252094 -14 171 C-10.98611927 169.64941886 -8.8965323 168.14395225 -6.57421875 165.8046875 C-5.94620361 165.1753833 -5.31818848 164.5460791 -4.67114258 163.89770508 C-4.01654053 163.2302124 -3.36193848 162.56271973 -2.6875 161.875 C-2.01033936 161.19139404 -1.33317871 160.50778809 -0.63549805 159.8034668 C3.12147431 155.98832431 6.74709387 152.11391192 10.19921875 148.01953125 C13.18278724 144.67353361 16.41000893 141.57056243 19.59838867 138.42114258 C22.92569979 135.1188606 26.04391384 131.71558667 29.078125 128.140625 C32.17978295 124.68593281 35.5051458 121.45377337 38.82617188 118.2109375 C42.80869732 114.42015305 42.80869732 114.42015305 46 110 C45.32636781 105.53662159 42.5642948 102.7301657 39.75 99.375 C33.32744495 91.53761842 27.39663518 83.39889698 21.52539062 75.14404297 C20.08914789 73.12530358 18.64740032 71.11065371 17.203125 69.09765625 C12.42299009 62.4312339 7.65133018 55.75715628 3 49 C2.31639404 48.16380127 1.63278809 47.32760254 0.9284668 46.46606445 C-1.6155328 41.89369298 -1.52748465 38.40027058 -1.42578125 33.26171875 C-1.42084908 31.87965996 -1.42084908 31.87965996 -1.41581726 30.46968079 C-1.40543247 28.53236776 -1.38554404 26.59508495 -1.35668945 24.65795898 C-1.31238848 21.68000357 -1.29521712 18.70285441 -1.28320312 15.72460938 C-1.26978796 13.84113409 -1.25486746 11.95766878 -1.23828125 10.07421875 C-1.23089432 9.17950363 -1.22350739 8.28478851 -1.21589661 7.36296082 C-1.11832112 1.11832112 -1.11832112 1.11832112 0 0 Z M59 128 C56.47483195 130.49565251 53.95570627 132.99732451 51.4375 135.5 C50.73302734 136.19609375 50.02855469 136.8921875 49.30273438 137.609375 C45.2389394 141.65444281 41.37821547 145.79851776 37.63696289 150.14257812 C35.21484987 152.8908907 32.62187897 155.44410209 30 158 C26.12151356 161.82588058 22.43932055 165.71760555 18.91015625 169.87109375 C15.89597747 173.23045456 12.66793551 176.37487475 9.4375 179.52539062 C7.93852933 180.99851697 6.47033306 182.49830892 5 184 C4.48107178 184.50253799 3.96214355 185.00507599 3.42749023 185.52284241 C-0.96350726 190.09827244 -1.87886142 193.40405442 -1.83984375 199.6484375 C-1.85861069 200.47161469 -1.87737762 201.29479187 -1.89671326 202.14291382 C-1.93434431 203.88342961 -1.95982674 205.62424596 -1.97381592 207.3651123 C-1.99937711 209.93731903 -2.06767476 212.50432766 -2.15283203 215.07519531 C-2.32310699 220.25784787 -2.44663617 225.44088065 -2.5625 230.625 C-2.58367889 231.53167419 -2.60485779 232.43834839 -2.62667847 233.37249756 C-2.96460735 247.91735345 -3.12812333 262.45088383 -3 277 C16.20558748 275.69449082 33.69964427 267.90085472 48 255 C48.68320313 254.39800781 49.36640625 253.79601562 50.0703125 253.17578125 C65.65772799 238.59696323 76.53111058 216.16868685 77.30078125 194.7734375 C77.32009215 192.97405771 77.323576 191.17444932 77.3125 189.375 C77.30758545 188.4164209 77.3026709 187.4578418 77.29760742 186.47021484 C76.96805395 166.23394183 70.62481467 146.69861063 61 129 C60.34 128.67 59.68 128.34 59 128 Z M-91 132 C-95.40912737 141.15741839 -99.37068139 150.20445711 -101.9375 160.0625 C-102.13625732 160.82216064 -102.33501465 161.58182129 -102.53979492 162.36450195 C-104.96726579 172.21983975 -105.22629255 181.88149015 -105 192 C-104.98324219 193.13824219 -104.96648437 194.27648437 -104.94921875 195.44921875 C-104.09684478 216.80727508 -94.36149414 235.64377033 -80 251 C-79.28199219 251.82113281 -78.56398438 252.64226562 -77.82421875 253.48828125 C-66.94786429 265.347809 -49.90495958 273.89313074 -34 276 C-32.24401267 276.04519387 -30.4869651 276.05892371 -28.73046875 276.04296875 C-27.84125732 276.03676514 -26.9520459 276.03056152 -26.03588867 276.02416992 C-25.36404541 276.01619385 -24.69220215 276.00821777 -24 276 C-23.73588843 267.70564401 -23.47491429 259.41119721 -23.21769714 251.11662483 C-23.09810439 247.2630857 -22.97752242 243.40958338 -22.85449219 239.55615234 C-22.57957367 230.92832246 -22.32096292 222.30037219 -22.09603882 213.67108154 C-22.03628957 211.38716808 -21.97340471 209.10333171 -21.90567017 206.81964111 C-21.83287954 204.24951448 -21.7804858 201.68015448 -21.73828125 199.109375 C-21.69634644 197.13275879 -21.69634644 197.13275879 -21.65356445 195.11621094 C-22.0377458 191.66047401 -22.66527699 190.45259817 -25.1875 188.125 C-26.79112577 187.08250083 -28.39537819 186.04096542 -30 185 C-32.23411881 183.07115119 -34.36134726 181.03353879 -36.5 179 C-40.5803516 175.20563267 -44.70417128 171.47807496 -48.91796875 167.83203125 C-52.13491793 165.00135739 -55.2797068 162.09232984 -58.43334961 159.19165039 C-62.44964149 155.49903889 -66.49353516 151.83859708 -70.5546875 148.1953125 C-72.25057592 146.67280564 -73.94305367 145.14649445 -75.6328125 143.6171875 C-82.56346374 136.14593242 -82.56346374 136.14593242 -91 132 Z " fill="#000000" transform="translate(164,0)"/>
</svg>
